# File created by Blade
# Date/Time:  Wed Jan 21 16:14:22 2015
#---------------------------------------------------------
:version 1.10
:name HOM
:units
  mass 1.0
  length 1.000000
  angle deg
:documentation
     Acclaim Skeleton File
:root
   axis xyz
   order TX TY TZ RX RY RZ
   position 0.000000 0.000000 0.000000
   orientation 0 0 0
:bonedata
   begin
      id 1
      name Spine_dum
      direction 0.000000 1.000000 0.000000
      length 7.067664
      axis 0.0 0.0 0.0 xyz
   end
   begin
      id 2
      name LeftUpLeg_dum
      direction 1.000000 0.000000 0.000000
      length 4.013002
      axis 0.0 0.0 0.0 xyz
   end
   begin
      id 3
      name RightUpLeg_dum
      direction -1.000000 0.000000 0.000000
      length 4.013002
      axis 0.0 0.0 0.0 xyz
   end
   begin
      id 4
      name Spine
      direction 0.000000 1.000000 0.000000
      length 0.000000
      axis 0.0 0.0 0.0 xyz
      dof rx ry rz
   end
   begin
      id 5
      name Spine_dum1
      direction 0.000000 1.000000 0.000000
      length 15.039886
      axis 0.0 0.0 0.0 xyz
   end
   begin
      id 6
      name Spine_dum2
      direction 0.000000 1.000000 0.000000
      length 10.530368
      axis 0.0 0.0 0.0 xyz
   end
   begin
      id 7
      name Spine_dum3
      direction 0.000000 1.000000 0.000000
      length 10.530368
      axis 0.0 0.0 0.0 xyz
   end
   begin
      id 8
      name Head
      direction 0.000000 1.000000 0.000000
      length 4.527550
      axis 0.0 0.0 0.0 xyz
      dof rx ry rz
   end
   begin
      id 9
      name LeftShoulder
      direction 1.000000 0.000000 0.000000
      length 7.028855
      axis 0.0 0.0 -90.0 xyz
      dof rx ry rz
   end
   begin
      id 10
      name LeftArm
      direction 1.000000 0.000000 0.000000
      length 10.797705
      axis 0.0 0.0 -90.0 xyz
      dof rx ry rz
   end
   begin
      id 11
      name LeftForeArm
      direction 1.000000 0.000000 0.000000
      length 7.907442
      axis 0.0 0.0 -90.0 xyz
      dof ry rz rx
   end
   begin
      id 12
      name LeftHand
      direction 0.000000 0.000000 0.000000
      length 0.000000
      axis 0.0 0.0 -90.0 xyz
      dof rx ry rz
   end
   begin
      id 13
      name LeftHand_dum1
      direction 0.000000 0.000000 0.000000
      length 0.000000
      axis 0.0 0.0 -90.0 xyz
   end
   begin
      id 14
      name LeftHand_dum2
      direction 1.000000 0.000000 0.000000
      length 3.937000
      axis 0.0 0.0 -90.0 xyz
   end
   begin
      id 15
      name LeftHandThumb1
      direction 0.000000 0.000000 1.000000
      length 3.937000
      axis 0.0 0.0 -90.0 xyz
      dof rx rz ry
   end
   begin
      id 16
      name RightShoulder
      direction -1.000000 0.000000 0.000000
      length 7.028855
      axis 0.0 0.0 90.0 xyz
      dof rx ry rz
   end
   begin
      id 17
      name RightArm
      direction -1.000000 0.000000 0.000000
      length 10.797705
      axis 0.0 0.0 90.0 xyz
      dof rx ry rz
   end
   begin
      id 18
      name RightForeArm
      direction -1.000000 0.000000 0.000000
      length 7.907442
      axis 0.0 0.0 90.0 xyz
      dof ry rz rx
   end
   begin
      id 19
      name RightHand
      direction 0.000000 0.000000 0.000000
      length 0.000000
      axis 0.0 0.0 90.0 xyz
      dof rx ry rz
   end
   begin
      id 20
      name RightHand_dum1
      direction 0.000000 0.000000 0.000000
      length 0.000000
      axis 0.0 0.0 90.0 xyz
   end
   begin
      id 21
      name RightHand_dum2
      direction -1.000000 0.000000 0.000000
      length 3.937000
      axis 0.0 0.0 90.0 xyz
   end
   begin
      id 22
      name RightHandThumb1
      direction 0.000000 0.000000 1.000000
      length 3.937000
      axis 0.0 0.0 90.0 xyz
      dof rx rz ry
   end
   begin
      id 23
      name LeftUpLeg
      direction 0.000000 -1.000000 0.000000
      length 16.899758
      axis 0.0 0.0 0.0 xyz
      dof rx ry rz
   end
   begin
      id 24
      name LeftLeg
      direction 0.000000 -1.000000 0.000000
      length 17.389183
      axis 0.0 0.0 0.0 xyz
      dof rx ry rz
   end
   begin
      id 25
      name LeftFoot
      direction 0.000000 -0.258819 0.965926
      length 4.924528
      axis 15.0 0.0 0.0 xyz
      dof rx ry rz
   end
   begin
      id 26
      name LeftToeBase
      direction 0.000000 0.000000 1.000000
      length 2.952750
      axis 0.0 0.0 0.0 xyz
      dof rx ry rz
   end
   begin
      id 27
      name RightUpLeg
      direction 0.000000 -1.000000 0.000000
      length 16.899758
      axis 0.0 0.0 0.0 xyz
      dof rx ry rz
   end
   begin
      id 28
      name RightLeg
      direction 0.000000 -1.000000 0.000000
      length 17.389183
      axis 0.0 0.0 0.0 xyz
      dof rx ry rz
   end
   begin
      id 29
      name RightFoot
      direction 0.000000 -0.258819 0.965926
      length 4.924528
      axis 15.0 0.0 0.0 xyz
      dof rx ry rz
   end
   begin
      id 30
      name RightToeBase
      direction 0.000000 0.000000 1.000000
      length 2.952750
      axis 0.0 0.0 0.0 xyz
      dof rx ry rz
   end
:hierarchy
   begin
      root Spine_dum LeftUpLeg_dum RightUpLeg_dum
      Spine_dum Spine
      LeftUpLeg_dum LeftUpLeg
      RightUpLeg_dum RightUpLeg
      Spine Spine_dum1 Spine_dum2 Spine_dum3
      Spine_dum1 Head
      Spine_dum2 LeftShoulder
      Spine_dum3 RightShoulder
      LeftShoulder LeftArm
      LeftArm LeftForeArm
      LeftForeArm LeftHand
      LeftHand LeftHand_dum1 LeftHand_dum2
      LeftHand_dum1 LeftHandThumb1
      RightShoulder RightArm
      RightArm RightForeArm
      RightForeArm RightHand
      RightHand RightHand_dum1 RightHand_dum2
      RightHand_dum1 RightHandThumb1
      LeftUpLeg LeftLeg
      LeftLeg LeftFoot
      LeftFoot LeftToeBase
      RightUpLeg RightLeg
      RightLeg RightFoot
      RightFoot RightToeBase
   end

# File created by Blade
# Date/Time:  Wed Jan 21 16:14:13 2015
# Frame Rate: 120.000 fps
#------------------------------------------------------
:FULLY-SPECIFIED
:DEGREES
23
root 18.411944 35.532553 -20.152446 -170.322556 -0.910877 -179.047260
Spine -18.086227 0.907874 0.304166
Head 8.620584 -1.350246 0.095214
LeftShoulder -10.640351 -33.208769 18.817450
LeftArm -0.515808 5.972052 -11.116269
LeftForeArm 9.418257 -0.000000 -2.538213
LeftHand -7.284474 -0.000000 -5.521589
LeftHandThumb1 -26.253704 0.000000 33.147579
RightShoulder -11.240667 -5.608794 -10.611350
RightArm 7.373206 32.975182 14.700433
RightForeArm -35.556683 -0.000000 3.762990
RightHand -5.896293 0.000000 8.621078
RightHandThumb1 -24.326973 -0.000000 -32.862282
LeftUpLeg -1.719224 9.144332 -0.603758
LeftLeg -5.559127 -0.000000 0.000000
LeftFoot -21.287462 25.835604 -12.284291
LeftToeBase 26.707744 -0.000000 -0.000000
RightUpLeg -3.118887 -5.377549 1.456803
RightLeg -2.704393 -0.000000 0.000000
RightFoot -21.339746 -27.909181 13.199742
RightToeBase 24.174517 -0.000000 -0.000000
24
root 18.412761 35.533430 -20.149402 -170.324626 -0.934668 -179.050335
Spine -18.094771 0.888632 0.311539
Head 8.634802 -1.346543 0.079708
LeftShoulder -10.626772 -33.207749 18.787859
LeftArm -0.511311 5.962338 -11.121129
LeftForeArm 9.405292 -0.000000 -2.569611
LeftHand -7.256035 -0.000000 -5.547984
LeftHandThumb1 -26.253704 0.000000 33.147579
RightShoulder -11.216986 -5.584913 -10.614542
RightArm 7.336978 32.943514 14.679152
RightForeArm -35.535762 0.000000 3.732495
RightHand -6.094571 0.000000 8.623780
RightHandThumb1 -24.326973 -0.000000 -32.862282
LeftUpLeg -1.728482 9.127553 -0.603179
LeftLeg -5.552507 -0.000000 0.000000
LeftFoot -21.274629 25.838018 -12.269967
LeftToeBase 26.734609 -0.000000 -0.000000
RightUpLeg -3.116746 -5.389848 1.459667
RightLeg -2.713700 -0.000000 0.000000
RightFoot -21.337684 -27.955077 13.218713
RightToeBase 24.099108 -0.000000 -0.000000
25
root 18.413022 35.533998 -20.145881 -170.323528 -0.949402 -179.053398
Spine -18.104230 0.866389 0.314114
Head 8.642903 -1.357540 0.085486
LeftShoulder -10.633891 -33.213790 18.791976
LeftArm -0.515805 5.970820 -11.146415
LeftForeArm 9.357691 -0.000000 -2.586869
LeftHand -7.278407 0.000000 -5.526991
LeftHandThumb1 -26.253704 0.000000 33.147579
RightShoulder -11.196013 -5.578278 -10.614331
RightArm 7.325406 32.982808 14.692394
RightForeArm -35.532843 -0.000000 3.726179
RightHand -6.106558 -0.000000 8.692364
RightHandThumb1 -24.326973 -0.000000 -32.862282
LeftUpLeg -1.738108 9.119608 -0.604202
LeftLeg -5.556279 -0.000000 0.000000
LeftFoot -21.250896 25.848087 -12.266707
LeftToeBase 26.454624 -0.000000 -0.000000
RightUpLeg -3.121018 -5.407534 1.459068
RightLeg -2.714413 -0.000000 0.000000
RightFoot -21.324691 -27.920899 13.195493
RightToeBase 24.167030 -0.000000 -0.000000
26
root 18.413315 35.534350 -20.142366 -170.325142 -0.952072 -179.052385
Spine -18.108140 0.860732 0.314634
Head 8.648447 -1.353026 0.101267
LeftShoulder -10.645985 -33.227251 18.809584
LeftArm -0.515024 5.945591 -11.173263
LeftForeArm 9.397338 -0.000000 -2.609487
LeftHand -7.320352 0.000000 -5.596909
LeftHandThumb1 -26.253704 0.000000 33.147579
RightShoulder -11.194316 -5.539532 -10.618706
RightArm 7.330276 32.993037 14.709275
RightForeArm -35.488070 -0.000000 3.701878
RightHand -6.013451 -0.000000 8.778825
RightHandThumb1 -24.326973 -0.000000 -32.862282
LeftUpLeg -1.742610 9.117655 -0.603891
LeftLeg -5.552139 -0.000000 0.000000
LeftFoot -21.261131 25.826053 -12.283131
LeftToeBase 26.744119 -0.000000 -0.000000
RightUpLeg -3.127477 -5.414999 1.462252
RightLeg -2.709213 -0.000000 0.000000
RightFoot -21.320474 -27.913645 13.204893
RightToeBase 24.144000 -0.000000 -0.000000
27
root 18.413054 35.534864 -20.139781 -170.325547 -0.966275 -179.054731
Spine -18.120044 0.849357 0.319600
Head 8.662572 -1.378220 0.090139
LeftShoulder -10.641318 -33.228751 18.806415
LeftArm -0.517982 5.910683 -11.197857
LeftForeArm 9.366900 -0.000000 -2.632084
LeftHand -7.348213 0.000000 -5.636623
LeftHandThumb1 -26.253704 0.000000 33.147579
RightShoulder -11.197963 -5.535369 -10.642467
RightArm 7.364763 32.994406 14.776183
RightForeArm -35.326627 -0.000000 3.660916
RightHand -6.087529 -0.000000 8.670223
RightHandThumb1 -24.326973 -0.000000 -32.862282
LeftUpLeg -1.748469 9.105383 -0.606266
LeftLeg -5.551503 -0.000000 0.000000
LeftFoot -21.251579 25.829421 -12.274565
LeftToeBase 26.702887 -0.000000 -0.000000
RightUpLeg -3.127280 -5.434733 1.461074
RightLeg -2.715215 -0.000000 0.000000
RightFoot -21.315310 -27.909814 13.204720
RightToeBase 24.141574 -0.000000 -0.000000
28
root 18.413349 35.535501 -20.136117 -170.318854 -0.981801 -179.058036
Spine -18.141878 0.825407 0.329005
Head 8.690074 -1.361870 0.073194
LeftShoulder -10.643290 -33.238696 18.807798
LeftArm -0.538948 5.865293 -11.220730
LeftForeArm 9.308185 0.000000 -2.639067
LeftHand -7.327401 -0.000000 -5.639103
LeftHandThumb1 -26.253704 0.000000 33.147579
RightShoulder -11.174546 -5.494262 -10.661965
RightArm 7.343107 33.043013 14.786460
RightForeArm -35.329550 -0.000000 3.671868
RightHand -6.141846 0.000000 8.818408
RightHandThumb1 -24.326973 -0.000000 -32.862282
LeftUpLeg -1.762818 9.080701 -0.608096
LeftLeg -5.550363 -0.000000 0.000000
LeftFoot -21.234729 25.839672 -12.269087
LeftToeBase 26.669115 -0.000000 -0.000000
RightUpLeg -3.138597 -5.461140 1.462900
RightLeg -2.716792 -0.000000 0.000000
RightFoot -21.306819 -27.890448 13.192059
RightToeBase 24.137553 -0.000000 -0.000000
29
root 18.413617 35.535905 -20.132036 -170.309411 -0.973367 -179.057739
Spine -18.164376 0.828773 0.338940
Head 8.713860 -1.373427 0.045978
LeftShoulder -10.627961 -33.244615 18.790126
LeftArm -0.567611 5.832751 -11.223290
LeftForeArm 9.278483 -0.000000 -2.640871
LeftHand -7.342128 -0.000000 -5.661168
LeftHandThumb1 -26.253704 0.000000 33.147579
RightShoulder -11.090139 -5.557158 -10.704755
RightArm 7.245123 33.229003 14.823962
RightForeArm -35.289706 -0.000000 3.672201
RightHand -6.155689 -0.000000 8.825025
RightHandThumb1 -24.326973 -0.000000 -32.862282
LeftUpLeg -1.775885 9.096399 -0.612339
LeftLeg -5.555720 -0.000000 0.000000
LeftFoot -21.232415 25.835805 -12.272084
LeftToeBase 26.745351 -0.000000 -0.000000
RightUpLeg -3.154710 -5.449362 1.463136
RightLeg -2.717026 -0.000000 0.000000
RightFoot -21.293517 -27.899607 13.188638
RightToeBase 24.134835 -0.000000 -0.000000
30
root 18.413775 35.536660 -20.129146 -170.300200 -0.989699 -179.060027
Spine -18.192259 0.804177 0.348530
Head 8.749570 -1.340422 0.033316
LeftShoulder -10.625844 -33.254129 18.793041
LeftArm -0.582426 5.795104 -11.239190
LeftForeArm 9.238910 -0.000000 -2.673849
LeftHand -7.340065 -0.000000 -5.683794
LeftHandThumb1 -26.253704 0.000000 33.147579
RightShoulder -11.069783 -5.385649 -10.713234
RightArm 7.187809 33.142195 14.752449
RightForeArm -35.313934 -0.000000 3.639723
RightHand -6.116815 -0.000000 8.885212
RightHandThumb1 -24.326973 -0.000000 -32.862282
LeftUpLeg -1.794112 9.097331 -0.613381
LeftLeg -5.556403 -0.000000 0.000000
LeftFoot -21.213624 25.821948 -12.276838
LeftToeBase 26.457886 -0.000000 -0.000000
RightUpLeg -3.161654 -5.467176 1.464964
RightLeg -2.728586 -0.000000 0.000000
RightFoot -21.282328 -27.893590 13.188219
RightToeBase 24.153708 -0.000000 -0.000000
31
root 18.413637 35.537271 -20.126540 -170.296619 -1.007768 -179.062068
Spine -18.217134 0.775282 0.359141
Head 8.782498 -1.326438 0.026058
LeftShoulder -10.625487 -33.264193 18.801326
LeftArm -0.602416 5.764440 -11.257639
LeftForeArm 9.178629 -0.000000 -2.699476
LeftHand -7.366440 -0.000000 -5.693834
LeftHandThumb1 -26.253704 0.000000 33.147579
RightShoulder -11.096413 -5.430429 -10.719481
RightArm 7.292077 33.201243 14.807964
RightForeArm -35.286737 -0.000000 3.567276
RightHand -5.915654 -0.000000 8.881176
RightHandThumb1 -24.326973 -0.000000 -32.862282
LeftUpLeg -1.806113 9.083720 -0.614885
LeftLeg -5.553031 -0.000000 0.000000
LeftFoot -21.198291 25.829425 -12.261685
LeftToeBase 26.408991 -0.000000 -0.000000
RightUpLeg -3.162976 -5.504746 1.468247
RightLeg -2.738705 -0.000000 0.000000
RightFoot -21.273168 -27.870265 13.197479
RightToeBase 24.131699 -0.000000 -0.000000
